<?xml version="1.0" encoding="UTF-8"?>
<svg width="32px" height="35px" viewBox="0 0 32 35" version="1.1" xmlns="http://www.w3.org/2000/svg" xmlns:xlink="http://www.w3.org/1999/xlink">
    <!-- Generator: Sketch 51.3 (57544) - http://www.bohemiancoding.com/sketch -->
    <title>Add</title>
    <desc>Created with Sketch.</desc>
    <defs></defs>
    <g id="Prototype" stroke="none" stroke-width="1" fill="none" fill-rule="evenodd">
        <g id="Maps" transform="translate(-307.000000, -537.000000)" fill="#FFFFFF">
            <g id="Add" transform="translate(294.000000, 524.000000)">
                <path d="M20.5968317,25.4162231 C20.0583575,25.7592072 19.3389396,25.6082222 18.9899669,25.0789886 C18.6409941,24.549755 18.7946155,23.8426828 19.3330897,23.4996987 C22.2677573,21.6304462 25.4342843,20.6900966 28.8076064,20.6900966 C32.1805791,20.6900966 35.35012,21.6302375 38.2913853,23.4989869 C38.8302595,23.8413637 38.984706,24.5482622 38.6363513,25.0778889 C38.2879965,25.6075156 37.5687553,25.7593117 37.0298811,25.4169349 C34.4604023,23.7844022 31.7279253,22.973902 28.8076064,22.973902 C25.887637,22.973902 23.1590669,23.7841935 20.5968317,25.4162231 Z M16.1288603,21.0440421 C15.483944,21.5127453 14.5745428,21.3788681 14.0976558,20.745019 C13.6207689,20.11117 13.7569836,19.2173747 14.4018999,18.7486715 C18.9472891,15.4452375 23.8999237,13.7815853 29.2195858,13.7815853 C34.5392478,13.7815853 39.4918824,15.4452375 44.0372716,18.7486715 C44.6821879,19.2173747 44.8184027,20.11117 44.3415157,20.745019 C43.8646288,21.3788681 42.9552275,21.5127453 42.3103112,21.0440421 C38.2561538,18.0976186 33.9059846,16.636342 29.2195858,16.636342 C24.5331869,16.636342 20.1830177,18.0976186 16.1288603,21.0440421 Z" id="Combined-Shape" fill-rule="nonzero"></path>
                <g id="Group" stroke-width="1" fill-rule="evenodd" transform="translate(19.419429, 28.800000)">
                    <path d="M11.3061703,7.90513114 L17.7554739,7.90513114 C18.6744507,7.90513114 19.4194286,8.65109958 19.4194286,9.5712983 C19.4194286,10.491497 18.6744507,11.2374655 17.7554739,11.2374655 L11.3061703,11.2374655 L11.3061703,17.5338328 C11.3061703,18.4540316 10.5611924,19.2 9.64221563,19.2 C8.72323886,19.2 7.97826099,18.4540316 7.97826099,17.5338328 L7.97826099,11.2374655 L1.66395465,11.2374655 C0.744977872,11.2374655 0,10.491497 0,9.5712983 C0,8.65109958 0.744977872,7.90513114 1.66395465,7.90513114 L7.97826099,7.90513114 L7.97826099,1.66616716 C7.97826099,0.745968447 8.72323886,0 9.64221563,0 C10.5611924,0 11.3061703,0.745968447 11.3061703,1.66616716 L11.3061703,7.90513114 Z" id="Combined-Shape" fill-rule="nonzero"></path>
                </g>
            </g>
        </g>
    </g>
</svg>