<?xml version="1.0" encoding="UTF-8"?>
<svg width="22px" height="24px" viewBox="0 0 22 24" version="1.1" xmlns="http://www.w3.org/2000/svg" xmlns:xlink="http://www.w3.org/1999/xlink">
    <!-- Generator: Sketch 51.3 (57544) - http://www.bohemiancoding.com/sketch -->
    <title>map-normal</title>
    <desc>Created with Sketch.</desc>
    <defs></defs>
    <g id="Symbols" stroke="none" stroke-width="1" fill="none" fill-rule="evenodd">
        <g id="map-normal" transform="translate(1.000000, 1.000000)" stroke="#9B99A9" stroke-width="2">
            <g id="Shape">
                <path d="M10,22 C8,20.4 7.9,15.2 11,14 C12.6,13.4 13.2,16.9 16.4,16 C17,15.8 18.5,16.7 18,18.1"></path>
                <path d="M4.3,3.8 C4.9,4.3 5.4,4.9 5.9,5.6 C6.3,6.3 7.2,8.2 6.4,9.2 C5.5,10.4 2.8,10.8 2.8,11.9 C2.8,12.7 4,13.7 4.6,14.6 C5.6,16 5.1,17.4 4.6,18.2 C4.3,18.7 3.9,19 3.4,19.3"></path>
                <path d="M18.2,6.3 C19.3,7.9 20,9.9 20,12 C20,17.5 15.5,22 10,22 C4.5,22 0,17.5 0,12 C0,6.5 4.5,2 10,2 C10.5,2 11,2 11.5,2.1"></path>
                <path d="M19,4 C19,6.5 15,10 15,10 C15,10 11,6.5 11,4 C11,1.5 13.1,0 15,0 C16.9,0 19,1.5 19,4 Z" stroke-linecap="square"></path>
            </g>
        </g>
    </g>
</svg>