<?xml version="1.0" encoding="UTF-8"?>
<svg width="78px" height="131px" viewBox="0 0 78 131" version="1.1" xmlns="http://www.w3.org/2000/svg" xmlns:xlink="http://www.w3.org/1999/xlink">
    <!-- Generator: Sketch 51.3 (57544) - http://www.bohemiancoding.com/sketch -->
    <title>Combined Shape</title>
    <desc>Created with Sketch.</desc>
    <defs></defs>
    <g id="Logo" stroke="none" stroke-width="1" fill="none" fill-rule="evenodd">
        <path d="M30.5269401,49.1307653 C30.3687331,49.0327235 30.1863038,48.98078 30.0001811,48.98078 C29.4478963,48.98078 29.0001811,49.4284952 29.0001811,49.98078 L29.0001811,79.01922 C29.0001811,79.2053427 29.0521246,79.387772 29.1501664,79.545979 C29.4410874,80.0154291 30.0574899,80.1601556 30.5269401,79.8692347 L53.9561566,65.3500147 C54.087423,65.2686682 54.1980658,65.1580254 54.2794123,65.026759 C54.5703332,64.5573088 54.4256067,63.9409063 53.9561566,63.6499853 L30.5269401,49.1307653 Z M32.633976,45.7307065 L56.0631925,60.2499266 C58.4104433,61.7045313 59.1340758,64.7865442 57.679471,67.1337949 C57.2727384,67.7901268 56.7195244,68.3433408 56.0631925,68.7500734 L32.633976,83.2692935 C30.2867253,84.7238982 27.2047124,84.0002657 25.7501077,81.6530149 C25.2598986,80.8619798 25.0001811,79.9498335 25.0001811,79.01922 L25.0001811,49.98078 C25.0001811,47.2193562 27.2387573,44.98078 30.0001811,44.98078 C30.9307946,44.98078 31.8429409,45.2404975 32.633976,45.7307065 Z M42.0279146,120.044104 C49.8528461,110.340607 57.2846445,98.6906509 62.7262915,87.3854276 C62.6584803,87.526308 63.7659678,85.2718465 64.3808474,84.0111633 C65.0667288,82.6045753 65.559844,81.5816407 65.8187584,81.0246319 C69.0701405,74.0298541 70.6081721,68.5284655 70.8089746,62.8175323 C71.041435,56.2062332 67.7845959,48.1799979 63.184388,42.9899246 C62.0853954,41.7500128 62.1996329,39.8539561 63.4395448,38.7549635 C64.6794566,37.6559709 66.5755132,37.7702085 67.6745058,39.0101203 C73.284275,45.3392068 77.0950423,54.7870625 76.8052692,63.0283685 C76.5736406,69.6160123 74.8469517,75.8363514 71.2596807,83.5537354 C70.9297017,84.2636273 70.2700399,85.6274416 69.4062445,87.3936734 C69.1037573,88.0121793 68.7967918,88.6379507 68.5064857,89.2284179 C68.3418304,89.5631975 68.3418304,89.5631975 68.2285196,89.7932867 C62.48481,101.719952 54.8083864,113.753624 46.6985032,123.810482 C45.44373,125.366494 44.1092957,126.840874 42.737853,128.200194 C42.0253482,128.9064 41.3883983,129.499023 40.9479672,129.874988 C40.3623248,130.374909 39.6195847,130.624209 38.9556411,130.590248 C38.2017007,130.624209 37.4589606,130.374909 36.8733182,129.874988 C36.4328871,129.499023 35.7959372,128.9064 35.0834324,128.200194 C33.7119897,126.840874 32.3775554,125.366494 31.1227822,123.810482 C23.012899,113.753624 15.3364753,101.719952 9.69137057,89.9932797 C9.47945497,89.5631975 9.47945497,89.5631975 9.31479967,89.2284179 C9.02449356,88.6379507 8.71752808,88.0121793 8.41504086,87.3936734 C7.55124544,85.6274416 6.89158367,84.2636273 6.56160468,83.5537354 C2.97433363,75.8363514 1.24764479,69.6160123 1.01601621,63.0283685 C0.726243098,54.7870625 4.53701034,45.3392068 10.1467796,39.0101203 C11.2457722,37.7702085 13.1418288,37.6559709 14.3817406,38.7549635 C15.6216524,39.8539561 15.73589,41.7500128 14.6368974,42.9899246 C10.0366894,48.1799979 6.77985041,56.2062332 7.01231074,62.8175323 C7.21311325,68.5284655 8.75114492,74.0298541 12.002527,81.0246319 C12.2614413,81.5816407 12.7545566,82.6045753 13.4132102,83.9553318 C14.0553175,85.2718465 15.1628051,87.526308 15.0949938,87.3854276 C20.5366408,98.6906509 27.9684393,110.340607 35.7933707,120.044104 C36.7846205,121.273327 37.8344331,122.447878 38.9106427,123.540883 C39.9868522,122.447878 41.0366649,121.273327 42.0279146,120.044104 Z M24.3126069,33.3062058 C23.385674,33.9069297 22.1472635,33.642485 21.5465397,32.715552 C20.9458158,31.7886191 21.2102605,30.5502086 22.1371935,29.9494848 C27.1889488,26.6755587 32.6398283,25.0285714 38.4466863,25.0285714 C44.2529427,25.0285714 49.7090103,26.6751932 54.772123,29.9482381 C55.6997444,30.5478982 55.9656096,31.7860045 55.3659495,32.713626 C54.7662894,33.6412474 53.5281831,33.9071126 52.6005617,33.3074525 C48.1774447,30.4481323 43.4737416,29.0285714 38.4466863,29.0285714 C33.4202326,29.0285714 28.7232547,30.4477667 24.3126069,33.3062058 Z M16.6214128,25.6484937 C15.5112498,26.4694099 13.9458008,26.234929 13.1248846,25.124766 C12.3039684,24.014603 12.5384493,22.449154 13.6486123,21.6282378 C21.4730739,15.8423963 29.9985703,12.9285714 39.1558701,12.9285714 C48.3131698,12.9285714 56.8386663,15.8423963 64.6631279,21.6282378 C65.7732909,22.449154 66.0077717,24.014603 65.1868555,25.124766 C64.3659394,26.234929 62.8004904,26.4694099 61.6903274,25.6484937 C54.7114752,20.4879428 47.2230666,17.9285714 39.1558701,17.9285714 C31.0886735,17.9285714 23.6002649,20.4879428 16.6214128,25.6484937 Z M4.79547401,17.8320945 C3.46804485,18.8236074 1.58817088,18.5512935 0.596657983,17.2238643 C-0.394854913,15.8964352 -0.122540976,14.0165612 1.20488819,13.0250483 C12.8067033,4.3591627 25.4332435,0 39.0001811,0 C52.5671187,0 65.1936589,4.3591627 76.795474,13.0250483 C78.1229032,14.0165612 78.3952171,15.8964352 77.4037042,17.2238643 C76.4121913,18.5512935 74.5323173,18.8236074 73.2048882,17.8320945 C62.6210135,9.92655159 51.2475537,6 39.0001811,6 C26.7528085,6 15.3793487,9.92655159 4.79547401,17.8320945 Z" id="Combined-Shape" fill="#173152" fill-rule="nonzero"></path>
    </g>
</svg>