<?xml version="1.0" encoding="UTF-8"?>
<svg width="24px" height="24px" viewBox="0 0 24 24" version="1.1" xmlns="http://www.w3.org/2000/svg" xmlns:xlink="http://www.w3.org/1999/xlink">
    <!-- Generator: Sketch 51.3 (57544) - http://www.bohemiancoding.com/sketch -->
    <title>discover-selected</title>
    <desc>Created with Sketch.</desc>
    <defs></defs>
    <g id="discover-selected" stroke="none" stroke-width="1" fill="none" fill-rule="evenodd">
        <g fill="#3C5C86" fill-rule="nonzero" id="Shape">
            <path d="M12,0 C5.4,0 0,5.4 0,12 C0,18.6 5.4,24 12,24 C18.6,24 24,18.6 24,12 C24,5.4 18.6,0 12,0 Z M11,3 C11,2.4 11.4,2 12,2 C12.6,2 13,2.4 13,3 L13,4 C13,4.6 12.6,5 12,5 C11.4,5 11,4.6 11,4 L11,3 Z M4,13 L3,13 C2.4,13 2,12.6 2,12 C2,11.4 2.4,11 3,11 L4,11 C4.6,11 5,11.4 5,12 C5,12.6 4.6,13 4,13 Z M13,21 C13,21.6 12.6,22 12,22 C11.4,22 11,21.6 11,21 L11,20 C11,19.4 11.4,19 12,19 C12.6,19 13,19.4 13,20 L13,21 Z M17.2,8.1 L15.1,14.5 C15,14.8 14.8,15 14.5,15.1 L8.1,17.2 C8,17.2 7.9,17.3 7.8,17.3 C7.5,17.3 7.3,17.2 7.1,17 C6.8,16.7 6.7,16.3 6.9,16 L9,9.6 C9,9.3 9.3,9 9.6,8.9 L16,6.8 C16.4,6.7 16.8,6.8 17,7 C17.2,7.3 17.3,7.7 17.2,8.1 Z M21,13 L20,13 C19.4,13 19,12.6 19,12 C19,11.4 19.4,11 20,11 L21,11 C21.6,11 22,11.4 22,12 C22,12.6 21.6,13 21,13 Z"></path>
            <polygon points="13.3 13.3 14.7 9.3 10.7 10.7"></polygon>
        </g>
    </g>
</svg>